<svg id="Layer_1" data-name="Layer 1" xmlns="http://www.w3.org/2000/svg" width="16" height="22" viewBox="0 0 16 22"><path d="M11,3.25a3.73,3.73,0,0,0,.43-.75,7.3,7.3,0,0,0,.42-1.45,2.75,2.75,0,0,0,0-.5,1.52,1.52,0,0,0-.06-.2h0l-.1.07a1.71,1.71,0,0,0-.23.13,6.64,6.64,0,0,0-.74.76,5.89,5.89,0,0,0-.7,1.15,5.59,5.59,0,0,0-.27,1.07,5.79,5.79,0,0,0,0,.72,2.9,2.9,0,0,0,.54-.31A5.28,5.28,0,0,0,11,3.25Z" fill="#ea9ad3"/><path d="M15.71,8.46v0a2.17,2.17,0,0,0,.07-.24c0-.3.05-.61.05-.92a.51.51,0,0,1-.09-.3V6.71c-.08-.16-.17-.31-.26-.47A.58.58,0,0,1,15.42,6a5.83,5.83,0,0,0-1-.55,2.07,2.07,0,0,0-.49-.12,4.3,4.3,0,0,0-.95,0,1.66,1.66,0,0,0-.38.11,7.15,7.15,0,0,0-1.34.79,7.16,7.16,0,0,0-1,1,.7.7,0,0,1-.62.34.5.5,0,0,1-.27-.07l0,0a1.2,1.2,0,0,1-.23-.22A1.66,1.66,0,0,1,8.89,7c-.14-.19-.27-.39-.4-.58a2.91,2.91,0,0,0-.31-.3,3.17,3.17,0,0,0-.47-.27,4.72,4.72,0,0,0-.53-.18,3.39,3.39,0,0,0-.55-.13c-.32,0-.64,0-1,0s-.69,0-1,0A5,5,0,0,0,4,5.67c-.21.1-.41.2-.61.32a4.17,4.17,0,0,0-.56.37c-.22.18-.45.36-.67.56a5.49,5.49,0,0,0-.57.61A9,9,0,0,0,1,8.37l-.25.47c-.05.1-.09.2-.13.3a5.32,5.32,0,0,0-.35,1.24l-.09.94c0,.32,0,.65,0,1s0,.65,0,1,0,.68,0,1a9.29,9.29,0,0,0,.3,1.39c.08.27.16.54.25.8s.16.43.25.64.24.51.38.75a5.7,5.7,0,0,0,.47.7c.12.15.24.3.37.44l.46.47c.28.28.58.55.88.81a3.88,3.88,0,0,0,.63.35,4.84,4.84,0,0,0,1,.3c.21,0,.42,0,.63,0a5.81,5.81,0,0,0,.59,0l.32-.08a2.78,2.78,0,0,0,.47-.28,7.19,7.19,0,0,0,.59-.51c.21-.21.41-.43.62-.66l.3-.35a.85.85,0,0,1,.28-.22.89.89,0,0,1,.32-.08.65.65,0,0,1,.58.49,6.26,6.26,0,0,1,.12,1.07,1.91,1.91,0,0,0,.12.47,2.46,2.46,0,0,0,.22.39,2.08,2.08,0,0,0,.21.21l.23.13.3.08a5.62,5.62,0,0,0,.92,0,4,4,0,0,0,.59-.17A5,5,0,0,0,13.4,21c.23-.19.44-.39.65-.6s.34-.4.51-.61a5,5,0,0,0,.39-.62c.09-.2.18-.4.26-.6s.25-.63.36-.95a6.74,6.74,0,0,0,.2-.89c0-.1,0-.2,0-.3s0-.14,0-.21l-.08,0c-.32-.12-.66-.19-1-.28s-.7-.18-1-.31a5,5,0,0,1-.57-.27,3.09,3.09,0,0,1-.66-.52,3.28,3.28,0,0,1-.69-1.07,1.54,1.54,0,0,1-.12-.34,4.14,4.14,0,0,1-.09-.46,6.47,6.47,0,0,1-.05-.76,3.91,3.91,0,0,1,.05-.48,2.51,2.51,0,0,1,.17-.55,2.77,2.77,0,0,1,.44-.67,4.15,4.15,0,0,1,.56-.55,5.59,5.59,0,0,1,.7-.5,8.55,8.55,0,0,1,1.36-.58.32.32,0,0,1,.09,0h0l0,0h0l.44-.19h0c.11-.06.23-.11.34-.18Z" fill="#ea9ad3"/></svg>